<svg width="24" height="24" viewBox="0 0 24 24" fill="none" xmlns="http://www.w3.org/2000/svg">
<g clip-path="url(#clip0_351_1766)">
<path d="M32.8018 16.8H-9.19824V26.4H32.8018V16.8Z" fill="#DA0000"/>
<path d="M32.8018 7.2002H-9.19824V16.8002H32.8018V7.2002Z" fill="white"/>
<path d="M32.8018 -2.3999H-9.19824V7.2001H32.8018V-2.3999Z" fill="#239F40"/>
<path d="M10.1582 14.614C10.7594 14.8094 11.4097 14.7905 11.9986 14.5607C12.5875 14.3308 13.0786 13.9041 13.3885 13.3531C13.6984 12.8021 13.808 12.1608 13.6986 11.5382C13.5891 10.9156 13.2675 10.3501 12.7883 9.93774C13.1001 10.3991 13.2773 10.9382 13.3001 11.4946C13.3229 12.051 13.1904 12.6028 12.9175 13.0882C12.6445 13.5735 12.2418 13.9733 11.7545 14.2428C11.2671 14.5123 10.7144 14.6408 10.1582 14.614Z" fill="#DA0000"/>
<path d="M13.6575 14.0887C14.0526 13.8603 14.3706 13.5192 14.5706 13.109C14.7706 12.6988 14.8436 12.2382 14.7802 11.7862C14.7169 11.3342 14.52 10.9115 14.2148 10.5721C13.9096 10.2327 13.5101 9.99221 13.0674 9.88135C13.3828 10.1185 13.6484 10.4156 13.8489 10.7556C14.0493 11.0956 14.1807 11.4717 14.2355 11.8626C14.2903 12.2534 14.2675 12.6512 14.1683 13.0332C14.0691 13.4152 13.8955 13.7739 13.6575 14.0887Z" fill="#DA0000"/>
<path d="M11.8019 15.1026L11.6519 12.1026L11.8019 9.74072C11.893 9.86804 12.0148 9.97028 12.156 10.038V11.8013L12.0353 14.7813L11.8019 15.1026Z" fill="#DA0000"/>
<path d="M11.7427 9.55332L11.8027 9.60967C11.8637 9.69644 11.9545 9.75778 12.0578 9.78205C12.161 9.80631 12.2696 9.79181 12.3629 9.7413C12.4562 9.69078 12.5277 9.60777 12.5638 9.50802C12.6 9.40828 12.5982 9.29873 12.5589 9.2002C12.5434 9.28226 12.5032 9.35761 12.4436 9.41615C12.3841 9.47469 12.308 9.5136 12.2257 9.52767C12.1434 9.54174 12.0587 9.53028 11.9831 9.49484C11.9075 9.4594 11.8445 9.40168 11.8027 9.32942" fill="#DA0000"/>
<path d="M13.4458 14.614C12.8446 14.8094 12.1943 14.7905 11.6054 14.5607C11.0165 14.3308 10.5254 13.9041 10.2155 13.3531C9.90557 12.8021 9.79603 12.1608 9.90545 11.5382C10.0149 10.9156 10.3365 10.3501 10.8157 9.93774C10.5039 10.3991 10.3267 10.9382 10.3039 11.4946C10.2811 12.051 10.4136 12.6028 10.6865 13.0882C10.9595 13.5735 11.3622 13.9733 11.8495 14.2428C12.3369 14.5123 12.8896 14.6408 13.4458 14.614Z" fill="#DA0000"/>
<path d="M9.94654 14.0887C9.55139 13.8603 9.23344 13.5192 9.03341 13.109C8.83337 12.6988 8.76037 12.2382 8.82376 11.7862C8.88715 11.3342 9.08404 10.9115 9.3892 10.5721C9.69436 10.2327 10.0939 9.99221 10.5366 9.88135C10.2212 10.1185 9.9556 10.4156 9.75515 10.7556C9.5547 11.0956 9.4233 11.4717 9.36848 11.8626C9.31367 12.2534 9.33651 12.6512 9.4357 13.0332C9.5349 13.4152 9.70849 13.7739 9.94654 14.0887Z" fill="#DA0000"/>
<path d="M11.8021 15.1026L11.9521 12.1026L11.8021 9.74072C11.711 9.86804 11.5892 9.97028 11.448 10.038V11.8013L11.5687 14.7813L11.8021 15.1026Z" fill="#DA0000"/>
<path d="M11.8613 9.55332L11.8013 9.60967C11.7403 9.69644 11.6495 9.75778 11.5462 9.78205C11.443 9.80631 11.3344 9.79181 11.2411 9.7413C11.1478 9.69078 11.0763 9.60777 11.0402 9.50802C11.004 9.40828 11.0058 9.29873 11.0451 9.2002C11.0606 9.28226 11.1008 9.35761 11.1604 9.41615C11.2199 9.47469 11.296 9.5136 11.3783 9.52767C11.4606 9.54174 11.5453 9.53028 11.6209 9.49484C11.6965 9.4594 11.7595 9.40168 11.8013 9.32942" fill="#DA0000"/>
<path d="M-5.19824 -2.39805H28.7303C29.2621 -2.41434 29.7917 -2.32325 30.2874 -2.13026C30.783 -1.93726 31.2345 -1.64633 31.6147 -1.27493C31.9949 -0.903522 32.2961 -0.459292 32.5 0.0311065C32.704 0.521505 32.8065 1.04796 32.8016 1.5789V22.4232C32.8016 24.7546 30.6301 26.4001 28.3928 26.4001" fill="black" fill-opacity="0.05"/>
<path d="M-5.19824 -2.39835H28.7302C29.2634 -2.41321 29.7942 -2.3215 30.2906 -2.12872C30.7871 -1.93594 31.239 -1.64606 31.6192 -1.27648C31.9994 -0.9069 32.3002 -0.465245 32.5033 0.0219817C32.7065 0.509208 32.8079 1.03196 32.8015 1.55886V9.2001" fill="black" fill-opacity="0.05"/>
<path d="M32.8018 22.4667C32.8018 24.9335 30.9726 26.4001 28.7374 26.4001H-5.13335C-5.67296 26.3997 -6.20708 26.2954 -6.70462 26.0933C-7.20216 25.8912 -7.65317 25.5955 -8.03141 25.2232C-8.40964 24.851 -8.70754 24.4097 -8.90777 23.925C-9.108 23.4404 -9.20655 22.922 -9.19769 22.4001" fill="black" fill-opacity="0.1"/>
</g>
<defs>
<clipPath id="clip0_351_1766">
<rect width="24" height="24" rx="12" fill="white"/>
</clipPath>
</defs>
</svg>
