<svg width="24" height="24" viewBox="0 0 24 24" fill="none" xmlns="http://www.w3.org/2000/svg">
<g clip-path="url(#clip0_351_1765)">
<path d="M29.9986 20.6857C29.9986 22.6284 28.4309 23.9997 26.5147 23.9997H-2.5161C-4.43233 23.9997 -6 22.6284 -6 20.6857V3.31667C-6 1.37394 -4.43233 0.00268555 -2.5161 0.00268555H26.5147C28.4309 0.00268555 29.9986 1.37394 29.9986 3.31667V20.6857Z" fill="#29337A"/>
<path d="M-2.49268 0.00268555H26.5184C28.4332 0.00268555 29.9999 1.37394 29.9999 3.31667V20.686C29.9999 22.6287 28.1432 24 26.2269 24" fill="#1B265B"/>
<path d="M-2.49268 0.00185145H26.5184C26.9719 -0.0131153 27.4237 0.0627841 27.8469 0.224998C28.27 0.387211 28.6557 0.632398 28.9808 0.945848C29.306 1.2593 29.5638 1.63455 29.7389 2.04911C29.914 2.46367 30.0028 2.90898 29.9999 3.35834V9.84061" fill="#111D49"/>
<path d="M29.9988 20.5838C30.0027 21.0363 29.915 21.485 29.7409 21.9034C29.5667 22.3218 29.3097 22.7013 28.9849 23.0196C28.6601 23.338 28.2742 23.5886 27.8499 23.7566C27.4257 23.9247 26.9718 24.0069 26.5149 23.9982H-2.51589C-2.97587 24.0004 -3.43168 23.9118 -3.85678 23.7378C-4.28188 23.5638 -4.66778 23.3077 -4.99201 22.9846C-5.31624 22.6614 -5.57231 22.2776 -5.74533 21.8555C-5.91835 21.4334 -6.00485 20.9814 -5.99979 20.5259" fill="#111D49"/>
<path d="M13.7387 12.0012L26.0841 0.00268555H22.6064L11.9996 10.4585L1.3932 0.00268555H-2.08447L10.261 12.0012L-2.08447 23.9997H1.3932L12 13.5438L22.6064 23.9997H26.0841L13.7387 12.0012Z" fill="white"/>
<path d="M1.48077 20.5261L-2.08447 23.9985H1.42158L4.92764 20.5261H1.48077Z" fill="#D9ECED"/>
<path d="M19.0703 20.5261L22.5764 23.9985H26.0824L22.5179 20.5261H19.0703Z" fill="#D9ECED"/>
<path d="M23.8235 21.8584L13.7387 12.1002L26.0837 0.00268555H22.6064L11.9996 10.4455L1.3932 0.00268555H-2.08447L0.234669 2.17098L23.8235 21.8584Z" fill="#D9ECED"/>
<path d="M29.9986 9.71563H14.3219V0.00268555H9.67671V9.71563H-6V14.2864H9.67671V23.9997H14.3219V14.2867H29.9986V9.71563Z" fill="white"/>
<path d="M14.4226 20.5688H9.57666V23.997H14.4226V20.5688Z" fill="#D9ECED"/>
<path d="M14.222 0.00268555H9.54732V9.84144H9.13818L14.6311 14.4694H29.9997V9.84144H14.222V0.00268555Z" fill="#D9ECED"/>
<path d="M29.9986 10.8586H13.8574L25.4116 0.00268555H24.2506L13.1606 10.8586V0.00268555H10.838V10.8586L-0.367948 0.00268555H-1.41295L9.67671 10.8586H-6V13.1441H9.73486L-1.12288 23.9997H-0.0775352L10.838 13.1438V23.9997H13.1606V13.2583L24.3666 23.9997H25.4116L14.3219 13.1438H29.9986V10.8586Z" fill="#E51D35"/>
<path d="M13.3839 20.5688H10.6147V23.997H13.3839V20.5688Z" fill="#AF0026"/>
<path d="M2.35576 20.5261L-1.0918 23.9985H-0.0398755L3.46618 20.5261H2.35576Z" fill="#AF0026"/>
<path d="M20.7666 20.5261L24.3318 23.9985H25.3838L21.8185 20.5261H20.7666Z" fill="#AF0026"/>
<path d="M14.2202 10.8092L25.4158 0.00268555H24.2555L13.1759 10.8092V0.00268555H10.8568V10.8092L-0.339482 0.00268555H-1.38379L4.99697 6.20213L18.9187 17.6912L14.3362 13.0845H29.9984V10.8092H14.2202Z" fill="#AF0026"/>
</g>
<defs>
<clipPath id="clip0_351_1765">
<rect width="24" height="24" rx="12" fill="white"/>
</clipPath>
</defs>
</svg>
